<?xml version="1.0" encoding="UTF-8"?>
<!-- Generator: Adobe Illustrator 16.0.1, SVG Export Plug-In . SVG Version: 6.00 Build 0)  -->
<!DOCTYPE svg PUBLIC "-//W3C//DTD SVG 1.1//EN" "http://www.w3.org/Graphics/SVG/1.1/DTD/svg11.dtd">
<svg version="1.1" id="Layer_1" xmlns="http://www.w3.org/2000/svg" xmlns:xlink="http://www.w3.org/1999/xlink" x="0px" y="0px" width="100px" height="100px" viewBox="0 0 100 100" enable-background="new 0 0 100 100" xml:space="preserve">
<g>
	<path fill-rule="evenodd" clip-rule="evenodd" d="M43.075,1.503c0.073,0.669-0.454,0.74-0.671,1.12   c1.421,0.773,0.149,2.35-0.747,2.763c0.257,0.213,0.717,0.46,1.12,0.299c0.375,0.636,0.946,1.191,1.643,1.27   c0.588,0.066,0.991-0.193,1.568,0c0.595,0.198,1,0.692,1.718,0.522c0.313,0.408,0.584,0.859,0.821,1.344   c1.415,0.377,2.804,0.779,3.882,1.493c-3.857,0.174-8.039,0.024-12.021,0.075c0-3.037,0-6.073,0-9.11   C41.32,1.039,42.061,1.202,43.075,1.503z"/>
	<path fill-rule="evenodd" clip-rule="evenodd" d="M35.981,1.279c0,3.037,0,6.073,0,9.11c-6.446,0-12.893,0-19.339,0   c-0.176-0.265,0.71-0.724,0.821-1.195c0.021-0.681-0.004-1.378,0.298-1.867c0.137-0.22,0.512-0.353,0.672-0.597   c0.185-0.283,0.128-0.68,0.299-0.896c0.409-0.515,2.137-1.022,2.837-1.419c0.845-0.478,1.153-1.162,1.568-2.239   c0.309,0.01,0.577-0.021,0.747-0.15c0.382,0.34,0.533,0.809,1.045,0.896c0.359,0.062,0.548-0.221,0.896-0.224   c0.567-0.005,1.452,0.508,1.867,0.598c0.758-0.338,1.253-0.938,2.39-0.897c0.692-0.975,2.056-0.793,3.136-0.896   C34.15,1.415,35.067,0.998,35.981,1.279z"/>
	<path fill-rule="evenodd" clip-rule="evenodd" d="M71.896,9.194c0,0.399,0,0.797,0,1.195c-6.297,0-12.594,0-18.89,0   c-0.084-0.188,0.674-0.497,0.746-0.971c0.068-0.451-0.378-0.906-0.299-1.27c0.181-0.829,2.02-1.479,3.137-1.194   c0.513,0.131,0.799,0.634,1.194,0.821c0.741,0.031,1.74,0.083,2.314,0.746c1.266-0.027,2.16-0.085,2.912,0.448   c0.62-0.259,1.094,0.325,1.644,0.299c0.452-0.022,0.855-0.646,1.269-0.822c1.025-0.437,1.987-0.285,2.987,0.225   C69.896,8.34,71.51,8.453,71.896,9.194z"/>
	<path fill-rule="evenodd" clip-rule="evenodd" d="M10.445,14.794c8.512,0,17.025,0,25.537,0c0,10.354,0,20.708,0,31.062   c-2.022,1.125-1.74-2.145-3.36-2.688c-0.707-0.237-1.866,0.101-2.688,0.149c-0.743,0.044-1.371-0.222-1.867,0.522   c-1.456,0.195-2.931,0.862-4.256,1.419c-1.792-0.741-4.077-0.994-5.899-0.374c-0.515,0.176-1.115,0.759-1.567,0.747   c-0.358-0.01-0.936-0.531-1.345-0.747c-1.127-0.594-2.007-1.208-2.688-2.24c-0.673-0.037-0.936-0.548-1.343-0.971   c-0.459-0.475-1.23-0.664-1.494-0.971c-0.44-0.513-0.572-1.384-0.522-2.09c-0.309-0.525-0.524-0.997-0.971-1.419   C7.87,37.09,7.61,37,7.533,36.896C7.364,36.667,7.352,36.271,7.159,36c-0.556-0.785-1.572-1.084-2.016-1.866   c-0.32-0.563-0.217-1.27-0.448-1.941c-0.061-0.384,0.388-0.259,0.299-0.672c0.049-0.533-0.767-0.818-0.896-1.419   c0.442-0.314,1.327-0.666,1.568-1.344c0.104-0.292,0.027-0.793,0.149-1.195c0.43-1.413,1.479-2.479,0.672-3.808   c0.348-0.911,0.604-2.178-0.523-2.389c0.202-0.611,0.247-1.216,0.597-1.867c0.967-0.378,1.082-1.507,1.717-2.166   c0.721-0.746,1.666-1.258,2.017-2.314C10.292,14.891,10.351,14.825,10.445,14.794z"/>
	<path fill-rule="evenodd" clip-rule="evenodd" d="M71.524,14.794c0.507,1.434,1.543,2.34,2.314,3.509   c-0.26,0.757,0.239,0.954,0.373,1.643c3.831,0.897,1.043,8.457,5.601,8.96c0.297,0.197,0.327,0.612,0.597,0.821   c0.128,0.099,0.39,0.036,0.598,0.149c0.438,0.239,0.638,0.976,1.419,0.896c0.169,1.076,1.678,1.122,1.718,2.09   c0.731,0.215,1.198,0.692,1.567,1.27c0.078,0.425-0.31,0.387-0.299,0.747c0.489,0.78,1.185,1.355,2.092,1.717   c0.591-0.205,0.951-0.64,1.568-0.821c0.77,0.547,1.333-0.289,2.015-0.522c0.208-0.071,0.459,0.071,0.747,0   c0.254-0.063,0.432-0.332,0.673-0.374c0.275-0.048,0.598,0.13,0.895,0.074c0.984-0.185,1.6-1.465,2.613-0.97   c0.106,0.347-0.133,0.485-0.148,0.821c-0.019,0.37,0.229,0.812,0.224,1.195c-0.006,0.431-0.229,1.079-0.448,1.643   c-0.333,0.855-0.397,1.56-0.97,2.091c-0.343,1.784-1.237,3.436-2.092,4.854c-0.771,1.28-1.568,2.52-2.613,3.435   c-0.581,0.509-1.39,0.699-2.017,1.195c-0.235,0.188-0.48,0.611-0.745,0.896c-0.269,0.289-0.56,0.554-0.822,0.821   c-0.524,0.535-1.285,1.074-1.643,1.568c-0.41,0.568-0.495,1.208-0.971,1.717c-0.472,0.506-0.886,0.923-1.644,1.271   c-0.235,1.016-0.582,2.146-1.343,2.837c0.143,0.806-0.649,1.267-0.597,1.866c0.049,0.575,0.615,0.648,0.896,1.195   c0.03,0.672-0.322,1.445-0.299,2.24c0.02,0.667,0.629,1.211,0.448,1.866c0.693,0.471,1.702,1.405,0.82,2.39   c0.311,1.634,0.344,3.599,0,5.228c-0.223,0.361-0.441,0.562-0.671,0.896c-0.198,0.286-0.342,0.73-0.598,0.971   c-1.009,0.942-2.78,0.759-3.808,1.718c-0.118,0.729-0.873,0.883-1.419,1.269c-0.595,0.42-0.94,1.298-1.718,1.344   c-0.168,0.49-0.107,1.125,0.373,1.494c-0.414,0.732,0.384,1.36,0.447,2.017c0.085,0.856-0.479,1.462-0.372,2.389   c-0.835,1.356-2.882,1.047-3.884,2.241c0.68,1.317-0.52,2.251-0.597,3.657c-2.053,0.886-2.409,3.466-4.479,4.332   c-0.88,1.008-1.563,2.228-3.062,2.464c-0.996,0.156-2.047-0.131-2.688,0.597c-0.794-0.546-2.014-0.102-2.763-0.298   c-0.36,0.04-0.292,0.405-0.673,0.522c-0.347,0.105-0.878-0.143-1.27-0.075c-0.428,0.074-0.812,0.592-1.194,0.597   c-0.869,0.016-0.901-1.12-1.792-1.12c0.274-0.531-0.436-0.883-0.672-1.344c0.007-0.44,0.609-0.286,0.672-0.671   c-0.726-1.64-1.522-3.208-2.165-4.928c-0.64-0.473-1.681-1.436-1.941-2.465c-0.295-1.167-0.882-2.81-0.971-3.808   c-0.052-0.59,0.171-1.229,0.075-1.793c-0.09-0.526-0.533-1.096-0.896-1.643c-0.686-1.031-1.066-2.234-1.792-3.285   c-0.342-0.496-0.916-0.926-1.12-1.42c-0.796-1.921,0.924-3.782,0.896-6.196c0.263-0.358,0.626-0.618,0.747-1.12   c0.211-0.063,0.461-0.087,0.672-0.15c1.448-2.025-1.604-3.902-0.299-5.674c-0.169-0.506-0.776-0.704-0.522-1.418   c-0.244-0.354-0.469-0.727-0.747-1.046c-0.432-2.531-1.965-3.96-3.435-5.45c0-13.64,0-27.28,0-40.919   C50.766,14.794,61.145,14.794,71.524,14.794z M52.483,17.258c0.752,0.442,1.261,0.718,1.568,1.27   c0.629,1.131,0.672,4.23,0.672,5.75c0,1.359-0.379,2.564-0.374,4.032c0.008,1.74,0.637,3.564,0.971,5.376   c0.312,1.685,0.437,3.513,0.598,5.451c0.305,3.662,0.383,7.82,1.568,10.977c0.343,0.911,0.922,1.463,1.046,2.464   c0.949,7.713-1.186,13.695-1.495,20.684c-0.164,3.746,0.15,7.175,0.15,11.349c0,2.774-0.055,8.683-1.792,9.633   c-0.555,0.303-1.484,0.027-1.718,0.746c0.731,0.759,2.049,0.058,2.987-0.073c0.178-0.519,0.061-0.822,0.299-1.345   c0.25-0.549,1.074-0.829,1.119-1.345c0.034-0.381-0.337-0.639-0.373-0.971c-0.05-0.463,0.176-1.114,0.225-1.717   c0.734-8.986,0.405-19.36,1.94-26.956c0.838,4.973,0.06,10.17,0.449,15.232c0.358,4.687,1.106,10.026,0.075,14.785   c0.805,0.474,1.415,1.368,0.969,2.464c0.508,0.127,1.703,0.463,1.942,0.149c-0.046-0.756-0.809-0.656-0.972-1.269   c-0.089-0.337,0.037-0.841,0-1.271c-0.086-1.028-0.739-2.017-0.82-2.763c-0.087-0.781,0.188-1.79,0.298-2.763   c0.547-4.804,0.346-9.597,0.15-14.56c-0.093-2.366-0.006-4.881-0.15-6.87c-0.171-2.363,0.832-4.358,0.822-6.571   c-0.01-1.892-0.498-3.635-1.12-5.077c-0.224-0.518-0.653-1.019-0.673-1.419c-0.013-0.284,0.251-0.928,0.374-1.419   c0.845-3.382,1.129-8.092,1.568-11.349c0.364-0.345,1.448-0.436,1.568-1.12c0.135-0.783-0.835-0.93-0.972-1.643   c-0.082-0.426,0.25-1.409,0.374-2.166c0.771-4.699,1.182-11.241,1.493-16.203c0.498-0.746,1.463-1.026,2.314-1.418   c0.188-0.393,0.069-1.162,0.225-1.493c-1.049,0.403-1.633,1.994-2.913,2.016c-0.842,0.014-1.304-0.618-2.165-0.821   c0.414,0.869,1.25,1.175,1.493,2.09c0.372,1.399,0.039,3.2-0.148,4.705c-0.181,1.439-0.61,2.82-0.822,4.182   c-0.483,3.102-0.895,5.879-1.119,8.661c-1.935-0.161-3.873,0.037-4.63,1.27c0.123,0.585,1.022,0.726,1.269,1.418   c0.303,0.851,0.104,2.085-0.298,2.763c-1.184-1.19-0.97-3.29-1.344-5.152c-0.351-1.748-0.821-3.56-0.896-5.45   c-0.08-1.992-0.222-3.988-0.447-5.899c-0.226-1.891-0.843-3.898-0.672-5.675c0.13-1.366,1.184-2.161,1.493-3.286   c-0.849,0.089-1.087,0.868-1.719,0.896c-1.265,0.055-1.883-1.084-2.688-1.792C52.227,16.321,52.339,16.805,52.483,17.258z"/>
	<path fill-rule="evenodd" clip-rule="evenodd" fill="#FFFFFF" d="M52.185,15.765c0.805,0.708,1.423,1.847,2.688,1.792   c0.632-0.028,0.87-0.807,1.719-0.896c-0.31,1.125-1.363,1.919-1.493,3.286c-0.171,1.776,0.446,3.784,0.672,5.675   c0.226,1.911,0.367,3.907,0.447,5.899c0.075,1.89,0.546,3.703,0.896,5.45c0.374,1.862,0.16,3.962,1.344,5.152   c0.401-0.678,0.601-1.912,0.298-2.763c-0.246-0.693-1.146-0.833-1.269-1.418c0.757-1.233,2.695-1.431,4.63-1.27   c0.225-2.782,0.636-5.559,1.119-8.661c0.212-1.361,0.642-2.743,0.822-4.182c0.188-1.504,0.521-3.306,0.148-4.705   c-0.243-0.916-1.079-1.221-1.493-2.09c0.861,0.203,1.323,0.835,2.165,0.821c1.28-0.022,1.864-1.613,2.913-2.016   c-0.155,0.332-0.036,1.101-0.225,1.493c-0.852,0.392-1.816,0.672-2.314,1.418c-0.312,4.962-0.723,11.504-1.493,16.203   c-0.124,0.757-0.456,1.74-0.374,2.166c0.137,0.713,1.106,0.86,0.972,1.643c-0.12,0.684-1.204,0.775-1.568,1.12   c-0.439,3.257-0.724,7.967-1.568,11.349c-0.123,0.491-0.387,1.135-0.374,1.419c0.02,0.4,0.449,0.901,0.673,1.419   c0.622,1.442,1.11,3.186,1.12,5.077c0.01,2.213-0.993,4.208-0.822,6.571c0.145,1.989,0.058,4.504,0.15,6.87   c0.195,4.963,0.396,9.756-0.15,14.56c-0.109,0.973-0.385,1.981-0.298,2.763c0.081,0.746,0.734,1.734,0.82,2.763   c0.037,0.43-0.089,0.934,0,1.271c0.163,0.612,0.926,0.513,0.972,1.269c-0.239,0.313-1.435-0.022-1.942-0.149   c0.446-1.096-0.164-1.99-0.969-2.464c1.031-4.759,0.283-10.099-0.075-14.785c-0.39-5.062,0.389-10.26-0.449-15.232   c-1.535,7.596-1.206,17.97-1.94,26.956c-0.049,0.603-0.274,1.254-0.225,1.717c0.036,0.332,0.407,0.59,0.373,0.971   c-0.045,0.516-0.869,0.796-1.119,1.345c-0.238,0.522-0.121,0.826-0.299,1.345c-0.938,0.131-2.256,0.832-2.987,0.073   c0.233-0.719,1.163-0.443,1.718-0.746c1.737-0.95,1.792-6.858,1.792-9.633c0-4.174-0.314-7.603-0.15-11.349   c0.31-6.988,2.444-12.971,1.495-20.684c-0.124-1.001-0.703-1.554-1.046-2.464c-1.186-3.157-1.264-7.314-1.568-10.977   c-0.161-1.938-0.286-3.766-0.598-5.451c-0.334-1.812-0.963-3.636-0.971-5.376c-0.005-1.467,0.374-2.672,0.374-4.032   c0-1.52-0.043-4.619-0.672-5.75c-0.308-0.552-0.816-0.828-1.568-1.27C52.339,16.805,52.227,16.321,52.185,15.765z M61.145,39.584   c-1.277-0.423-1.102,1.611-0.896,2.465C60.9,41.63,61.661,40.464,61.145,39.584z"/>
	<path fill-rule="evenodd" clip-rule="evenodd" fill="#FFFFFF" d="M60.249,42.049c-0.206-0.854-0.382-2.888,0.896-2.465   C61.661,40.464,60.9,41.63,60.249,42.049z"/>
	<path display="none" fill-rule="evenodd" clip-rule="evenodd" d="M73.091,99.692c-0.023,1.204-1.142,1.683-2.313,1.494   c-0.089-0.785-0.021-0.851,0-1.718C71.628,99.258,72.571,99.181,73.091,99.692z"/>
	<path fill="#FFFFFF" d="M40.387,55.714c0,0-2.044-0.544-1.89-2.679c0.087-1.219-1.228-2.902-1.005-4.242   c0.224-1.34-0.223-3.293-1.511-2.937c-0.172,0.048,0-44.578,0-44.578s0.632,0.366,1.469-0.011c0.837-0.376,2.937,0.011,2.937,0.011   V55.714z"/>
	<path fill="#FFFFFF" d="M71.896,10.389c0,0,0.077,1.994-0.622,2.768c-0.702,0.774,0.25,1.637,0.25,1.637h-61.08   c0,0,1.29-0.8,2.56-2.559c1.27-1.758,3.216-0.345,3.638-1.847H71.896z"/>
	<path fill-rule="evenodd" clip-rule="evenodd" d="M37.923,7.85c0.199,0,0.398,0,0.597,0c0,1.443,0,2.887,0,4.331   c2.085,0.098,4.62-0.196,6.57,0.15c-0.023,0.091,0.031,0.209,0,0.298c-0.162,0.476-2.338,0.224-3.135,0.224   c-1.423,0-2.535,0-3.361,0c-0.272,4.416,0.172,9.625-0.224,14.038c-0.757,0.23-0.522-0.674-0.522-1.568c0-3.945,0-8.724,0-12.395   c-1.868-0.273-4.455,0.173-6.198-0.224c0.024-0.091-0.03-0.209,0-0.298c0.165-0.479,2.148-0.225,2.987-0.225   c1.318,0,2.379,0,3.137,0C37.997,10.911,37.699,9.12,37.923,7.85z"/>
</g>
<g>
</g>
<g>
</g>
<g>
</g>
<g>
</g>
<g>
</g>
<g>
</g>
<g>
</g>
<g>
</g>
<g>
</g>
<g>
</g>
<g>
</g>
<g>
</g>
<g>
</g>
<g>
</g>
<g>
</g>
</svg>